Coordinates
version=1
nRows=7
nColumns=46
inDegrees=yes

Units are S.I. units (second, meters, Newtons, ...)
Angles are in degrees.

endheader
time	pelvis_tilt	pelvis_list	pelvis_rotation	pelvis_tx	pelvis_ty	pelvis_tz	bb_angle	bb_tx	bb_ty	bb_tz	hip_flexion_r	hip_adduction_r	hip_rotation_r	knee_angle_r	knee_angle_r_beta	ankle_angle_r	subtalar_angle_r	mtp_angle_r	crank_angle_r	hip_flexion_l	hip_adduction_l	hip_rotation_l	knee_angle_l	knee_angle_l_beta	ankle_angle_l	subtalar_angle_l	mtp_angle_l	crank_angle_l	lumbar_extension	lumbar_bending	lumbar_rotation	arm_flex_r	arm_add_r	arm_rot_r	elbow_flex_r	pro_sup_r	wrist_flex_r	wrist_dev_r	arm_flex_l	arm_add_l	arm_rot_l	elbow_flex_l	pro_sup_l	wrist_flex_l	wrist_dev_l
      0.00500000	    -27.08635282	      3.52707392	      4.64603944	      0.10788535	      1.06034341	     -0.25692762	      0.00000000	      0.50000000	      0.00000000	      0.25000000	     58.79251138	    -11.07227802	     -2.11807611	     66.38417318	      1.15862239	     18.88808728	     -8.24011655	      0.00000000	      0.00000000	     95.53075677	      0.73843348	     -2.31582229	     88.01370756	      1.53612898	     23.84225387	     -6.88061348	      0.00000000	      0.00000000	    -41.97505383	     -1.40912898	     -3.14523297	     89.74865622	     -2.89735863	     43.93384335	     20.49309925	     24.01461225	      0.00000000	      0.00000000	     89.64396537	      6.84993502	     80.79584802	     64.75784198	     48.13628761	      0.00000000	      0.00000000
      0.01000000	    -27.08104427	      3.52440354	      4.65194442	      0.10789366	      1.06034832	     -0.25694231	      0.00000000	      0.50000000	      0.00000000	      0.25000000	     58.78738555	    -11.07393824	     -2.11763598	     66.38732308	      1.15867737	     18.87522191	     -8.27272817	      0.00000000	      0.00000000	     95.52519071	      0.74377509	     -2.31748894	     88.00750855	      1.53602079	     23.82874682	     -6.88805129	      0.00000000	      0.00000000	    -41.98320503	     -1.41288012	     -3.15349348	     89.74896910	     -2.88361637	     43.89785329	     20.33901042	     24.66186589	      0.00000000	      0.00000000	     89.64491868	      6.83309185	     80.71621450	     66.74486245	     47.17593462	      0.00000000	      0.00000000
      0.01500000	    -27.08708186	      3.51673440	      4.63509486	      0.10790730	      1.06032845	     -0.25690305	      0.00000000	      0.50000000	      0.00000000	      0.25000000	     58.80056708	    -11.04892247	     -2.11444130	     66.40181696	      1.15893034	     18.88176878	     -8.30023539	      0.00000000	      0.00000000	     95.54138039	      0.71750261	     -2.31289653	     88.01788824	      1.53620195	     23.79920886	     -6.89054935	      0.00000000	      0.00000000	    -41.97865759	     -1.41956580	     -3.15522860	     89.74880343	     -2.84734572	     43.83000915	     20.33483496	     24.73225924	      0.00000000	      0.00000000	     89.64436989	      6.86664420	     80.97811473	     67.98321083	     46.47509379	      0.00000000	      0.00000000
      0.02000000	    -26.91632321	      3.68424530	      4.62396268	      0.10821312	      1.06070447	     -0.25706575	      0.00000000	      0.50000000	      0.00000000	      0.25000000	     58.64571646	    -11.20178966	     -2.02182266	     66.45956271	      1.15993819	     18.87740059	     -8.19267552	      0.00000000	      0.00000000	     95.31416480	      0.69036946	     -2.57003832	     88.00069723	      1.53590191	     23.73407095	     -6.96819897	      0.00000000	      0.00000000	    -42.22333137	     -1.52001598	     -3.29551079	     89.74608755	     -2.60714866	     42.22809477	     20.82943057	     23.48373136	      0.00000000	      0.00000000	     89.64530104	      6.72796676	     81.52618684	     68.61985581	     46.16739175	      0.00000000	      0.00000000
      0.02500000	    -26.90827943	      3.71538038	      4.65212608	      0.10823320	      1.06077031	     -0.25707208	      0.00000000	      0.50000000	      0.00000000	      0.25000000	     58.63760711	    -11.25027067	     -2.01925721	     66.47660698	      1.16023567	     18.88899415	     -8.16908367	      0.00000000	      0.00000000	     95.30730975	      0.77344883	     -2.52510335	     88.01676259	      1.53618230	     23.72849056	     -7.16922107	      0.00000000	      0.00000000	    -42.25505810	     -1.48227953	     -3.33410283	     89.74518172	     -2.53975129	     41.98086659	     21.06146780	     22.24804610	      0.00000000	      0.00000000	     89.64690329	      6.57377640	     81.36628904	     69.03551518	     45.94531092	      0.00000000	      0.00000000
      0.03000000	    -26.90700304	      3.70151941	      4.63077841	      0.10821420	      1.06078110	     -0.25702841	      0.00000000	      0.50000000	      0.00000000	      0.25000000	     58.64451364	    -11.20858786	     -1.99341087	     66.47778750	      1.16025627	     18.86752780	     -8.19671207	      0.00000000	      0.00000000	     95.32816660	      0.72067632	     -2.52946108	     87.94953689	      1.53500899	     23.75132187	     -6.97544080	      0.00000000	      0.00000000	    -42.24256112	     -1.51301941	     -3.32116424	     89.74715908	     -2.61940183	     42.48508605	     20.64450211	     24.40555843	      0.00000000	      0.00000000	     89.64539827	      6.71158820	     81.11675195	     70.11009900	     45.59207445	      0.00000000	      0.00000000
      0.03500000	    -26.90607306	      3.69357363	      4.65116044	      0.10816817	      1.06084194	     -0.25696880	      0.00000000	      0.50000000	      0.00000000	      0.25000000	     58.63844777	    -11.19929299	     -1.99097665	     66.47284258	      1.16016997	     18.87031786	     -8.21146568	      0.00000000	      0.00000000	     95.33540378	      0.75122525	     -2.50028221	     87.94122975	      1.53486401	     23.68809615	     -7.01031540	      0.00000000	      0.00000000	    -42.26297791	     -1.50216405	     -3.35035802	     89.74521308	     -2.56099470	     42.14393074	     20.86156462	     23.69123714	      0.00000000	      0.00000000	     89.64583924	      6.72599646	     81.13081839	     70.47632910	     45.48587832	      0.00000000	      0.00000000
